# xmcd
#
# Track frame offsets: 
#        150
#        3226
#        12915
#        26007
#        46149
#        59786
#        74249
#        97881
#        112634
#        125518
#        148342
#        171330
#        184608
#        204161
#        215855
#        227530
#        241939
#        257536
#        273157
#        293969
#        317478
#        328832
#
# Disc length: 4539 seconds
#
# Revision: 4
# Processed by: cddbd v1.5.2PL0 Copyright (c) Steve Scherf et al.
# Submitted via: ExactAudioCopy v0.95b4
#
DISCID=4011b916
DTITLE=Various Artist - snowflakes
DYEAR=1999
DGENRE=Jazz
TTITLE0=singers unlimited - the famous sound of MPS
TTITLE1=nelson riddle orchestra - my life
TTITLE2=the third wave - wave´s lament
TTITLE3=art van damme and flutes - how will i forget
TTITLE4=nelson riddle orchestra - lamento
TTITLE5=the third wave - stormy
TTITLE6=singers unlimited - stone ground seven
TTITLE7=horst jankowski orchestra - maghribinia 4+5
TTITLE8=heinz kiessling orchestra - falena
TTITLE9=svend asmussen and orchestra - ack värmeland
TTITLE10=clark terry and orchestra - november song
TTITLE11=horst jankowski orchestra - little racer
TTITLE12=singers unlimited /w art van damme - we could be flying
TTITLE13=pete jacques orchestra and singers - bacana
TTITLE14=frank pleyer orchestra - no problems anymore
TTITLE15=horst jankowski orchestra - wisst ihr auch
TTITLE16=art van damme and strings - we´ve only just begun
TTITLE17=nelson riddle orchestra - romantic places
TTITLE18=the hi-lo´s - everything must change
TTITLE19=patrick williams orchestra - and we will love again
TTITLE20=heinz kiessling orchestra - petula
TTITLE21=hubert deuringer orchestra - time to love
EXTD=YEAR: 1999
EXTT0=
EXTT1=
EXTT2=
EXTT3=
EXTT4=
EXTT5=
EXTT6=
EXTT7=
EXTT8=
EXTT9=
EXTT10=
EXTT11=
EXTT12=
EXTT13=
EXTT14=
EXTT15=
EXTT16=
EXTT17=
EXTT18=
EXTT19=
EXTT20=
EXTT21=
PLAYORDER=
